<svg xmlns="http://www.w3.org/2000/svg" viewBox="0 0 8803 5426" role="img" aria-label="SmirkPočasí" width="8803" height="5426"><metadata><rdf:RDF xmlns:rdf="http://www.w3.org/1999/02/22-rdf-syntax-ns#" xmlns:dc="http://purl.org/dc/elements/1.1/"><rdf:Description><dc:creator>RealFaviconGenerator</dc:creator><dc:source>https://realfavicongenerator.net</dc:source></rdf:Description></rdf:RDF></metadata><g transform="translate(-7564.7331,-1836.8181)">
    <g transform="matrix(130.88708,-35.071088,35.071088,130.88708,6945.3945,2480.0387)">
      <path fill="#ffac33" d="m 16,2 c 0,0 0,-2 2,-2 2,0 2,2 2,2 v 2 c 0,0 0,2 -2,2 -2,0 -2,-2 -2,-2 z m 18,14 c 0,0 2,0 2,2 0,2 -2,2 -2,2 h -2 c 0,0 -2,0 -2,-2 0,-2 2,-2 2,-2 z M 4,16 c 0,0 2,0 2,2 0,2 -2,2 -2,2 H 2 C 2,20 0,20 0,18 0,16 2,16 2,16 Z M 9.121,7.293 c 0,0 1.414,1.414 0,2.828 -1.414,1.414 -2.828,0 -2.828,0 L 4.878,8.708 c 0,0 -1.414,-1.414 0,-2.829 1.415,-1.414 2.829,0 2.829,0 z m 21,21 c 0,0 1.414,1.414 0,2.828 -1.414,1.414 -2.828,0 -2.828,0 l -1.414,-1.414 c 0,0 -1.414,-1.414 0,-2.828 1.414,-1.414 2.828,0 2.828,0 z M 29.708,10.121 c 0,0 -1.414,1.414 -2.828,0 -1.414,-1.414 0,-2.828 0,-2.828 l 1.414,-1.414 c 0,0 1.414,-1.414 2.828,0 1.414,1.414 0,2.828 0,2.828 z m -21,21 c 0,0 -1.414,1.414 -2.828,0 -1.414,-1.414 0,-2.828 0,-2.828 l 1.414,-1.414 c 0,0 1.414,-1.414 2.828,0 1.414,1.414 0,2.828 0,2.828 z M 16,32 c 0,0 0,-2 2,-2 2,0 2,2 2,2 v 2 c 0,0 0,2 -2,2 -2,0 -2,-2 -2,-2 z"></path>
      <circle fill="#ffac33" cx="18" cy="18" r="10"></circle>
    </g>
    <path fill="#e1e8ed" d="m 14585.033,3700.564 c -183.698,0 -360.72,27.8338 -527.499,79.492 a 1446.8945,1446.8945 0 0 0 -1365.175,-970.1628 c -677.799,0 -1245.157,466.7117 -1402.583,1095.7481 A 992.87512,992.87512 0 0 0 10688.349,3700.564 1002.0045,1002.0045 0 0 0 9686.3455,4702.5685 c 0,134.491 27.3893,262.3028 75.4853,379.4261 a 1108.885,1108.885 0 0 0 -298.1527,-45.425 c -615.0084,0 -1113.3383,498.3309 -1113.3383,1113.3383 0,615.0084 498.3299,1113.3383 1113.3383,1113.3383 h 5121.3549 a 1781.3414,1781.3414 0 1 0 0,-3562.6822 z"></path>
    <g transform="matrix(0.40342119,0,0,0.40342119,9230.6876,-4369.7436)">
      <path fill="#292f33" d="m 10748.3,24996.127 c -287.874,-77.359 -500.83,-354.218 -500.83,-651.121 v -94.76 l -123.586,9.53 c -366.9735,28.299 -751.271,155.832 -1088.1302,361.104 -130.4243,79.477 -198.3364,95.42 -305.1898,71.645 -146.0188,-32.491 -265.775,-180.362 -265.775,-328.169 0,-137.053 76.7216,-238.369 269.4001,-355.765 356.0857,-216.956 744.5251,-350.537 1223.9584,-420.91 257.3495,-37.774 843.7705,-37.751 1118.1945,0.06 286.304,39.432 369.482,66.192 447.137,143.847 80.621,80.622 107.397,156.217 93.218,263.179 -14.958,112.834 -14.582,131.07 4.868,236.236 46.186,249.709 -98.724,560.612 -322.388,691.688 -160.131,93.843 -370.576,121.903 -550.877,73.452 z"></path>
      <path fill="#292f33" d="m 3871.8781,22710.743 c 126.074,-150.59 270.0709,-285.332 420.2232,-411.928 197.3254,-166.369 406.3564,-319.615 630.335,-447.87 203.6393,-116.608 419.1375,-212.232 641.3933,-287.52 238.51,-80.799 485.2705,-138.292 735.6879,-164.868 69.0122,-7.324 139.693,-12.197 207.0498,4.519 58.4155,14.496 112.6458,45.278 155.3235,87.718 42.6775,42.441 73.7232,96.393 89.3616,154.514 15.6385,58.12 15.8753,120.259 1.0737,178.597 -14.8021,58.34 -44.5707,112.766 -85.4105,156.977 -59.6043,64.525 -142.5049,106.459 -229.464,118.88 -39.337,5.617 -79.2468,5.417 -118.8789,8.293 -102.5823,7.442 -202.4363,35.378 -301.3443,63.587 -232.1236,66.2 -465.6652,135.562 -677.3336,251.58 -50.043,27.431 -98.6742,57.373 -146.5251,88.468 -162.2499,105.439 -315.6246,224.197 -461.6927,351.109 -143.4965,124.676 -280.8143,258.16 -392.5769,411.928 -35.9989,49.529 -69.3983,101.22 -110.5851,146.526 -41.8672,46.055 -91.7741,85.199 -147.9819,111.93 -56.2079,26.731 -118.8153,40.806 -180.9646,37.437 -111.0086,-6.024 -217.1497,-70.772 -273.3013,-166.719 -56.1516,-95.949 -60.6176,-220.201 -11.4993,-319.932 73.7849,-132.081 159.9911,-257.219 257.1102,-373.226 z"></path>
      <path fill="#292f33" d="m 6509.7284,25077.594 c -129.2219,-36.149 -225.9107,-93.11 -324.8842,-191.397 -138.9729,-138.006 -206.8449,-302.723 -206.8449,-501.983 v -69.709 l -82.1052,10.264 c -429.2129,53.66 -734.3182,145.085 -1004.8114,301.089 -234.8146,135.428 -258.1512,145.114 -349.5926,145.114 -272.0367,0 -430.5134,-293.239 -279.5457,-517.26 54.8928,-81.455 171.0951,-160.877 410.191,-280.358 477.8704,-238.802 961.3467,-344.035 1580.6071,-344.035 401.9958,0 800.6935,49.15 929.3237,114.565 40.4466,20.568 90.1911,64.159 117.2929,102.78 44.7821,63.817 47.1502,75.135 48.9112,233.733 1.0182,91.667 7.1617,215.929 13.653,276.14 48.2356,447.415 -418.5507,842.372 -852.1949,721.057 z"></path>
      <path fill="#292f33" d="m 13244.812,22518.74 c -133.782,-143.786 -284.634,-270.807 -441.206,-389.372 -205.762,-155.811 -422.527,-297.908 -652.911,-414.265 -209.463,-105.79 -429.67,-190.003 -655.562,-253.56 -242.412,-68.204 -491.842,-112.703 -743.308,-126.138 -69.3,-3.702 -140.14,-4.867 -206.529,15.349 -57.577,17.533 -110.122,51.111 -150.52,95.728 -40.399,44.615 -68.577,100.119 -81.153,158.978 -12.575,58.858 -9.56,120.926 8.275,178.411 17.835,57.483 50.412,110.276 93.509,152.291 62.899,61.316 147.881,98.853 235.372,106.706 39.576,3.551 79.422,1.263 119.15,2.059 102.83,2.063 204.01,24.736 304.259,47.729 235.27,53.962 472.122,111.006 689.572,215.788 51.41,24.773 101.542,52.129 150.954,80.677 167.546,96.804 326.926,207.371 479.436,326.465 149.824,116.995 293.939,243.11 413.597,390.818 38.542,47.577 74.601,97.447 118.102,140.537 44.22,43.801 96.107,80.277 153.637,104.031 57.53,23.754 120.788,34.535 182.676,27.916 110.542,-11.825 213.149,-82.039 264.202,-180.793 51.053,-98.758 49.01,-223.071 -5.261,-320.098 -80.596,-128.038 -173.233,-248.492 -276.291,-359.257 z"></path>
      <path fill="#292f33" d="m 9032.9934,28001.471 c -4.5615,-1.186 -69.2539,-6.07 -143.7606,-10.852 -74.5067,-4.785 -201.403,-13.593 -281.9919,-19.576 -80.5889,-5.984 -203.7529,-14.576 -273.6981,-19.092 -150.7762,-9.734 -387.2782,-25.852 -605.4531,-41.261 -152.0553,-10.74 -220.2649,-15.432 -566.7485,-38.991 -258.2193,-17.559 -632.529,-43.679 -663.896,-46.33 -27.6766,-2.338 -76.5883,-26.159 -100.0482,-48.726 -9.6225,-9.255 -24.3695,-32.1 -32.7718,-50.763 -37.7861,-83.933 -0.5852,-178.528 85.839,-218.268 36.0355,-16.572 66.1231,-17.37 257.4783,-6.84 181.4285,9.984 865.923,14.224 1040.7096,6.445 491.7243,-21.88 808.079,-62.833 1072.3849,-138.824 74.3435,-21.373 252.4976,-93.006 659.8259,-265.302 56.2602,-23.797 144.59,-60.627 196.2885,-81.844 99.4741,-40.826 426.5446,-176.996 533.5726,-222.146 255.648,-107.844 270.455,-112.089 325.787,-93.402 38.663,13.056 77.119,44.687 98.325,80.87 11.849,20.218 15.223,34.065 17.049,69.951 2.257,44.377 2.023,45.307 -28.381,113.142 -112.588,251.207 -338.291,532.636 -558.762,696.725 -172.9895,128.751 -314.1785,202.781 -502.3343,263.393 -93.0102,29.962 -214.0974,55.148 -302.715,62.965 -73.3004,6.466 -214.4819,11.9 -226.6993,8.726 z"></path>
    </g>
  </g></svg>